<?xml version="1.0" encoding="utf-8"?>
<!-- Generator: Adobe Illustrator 15.0.0, SVG Export Plug-In . SVG Version: 6.00 Build 0)  -->
<!DOCTYPE svg PUBLIC "-//W3C//DTD SVG 1.1//EN" "http://www.w3.org/Graphics/SVG/1.1/DTD/svg11.dtd">
<svg version="1.1" id="Layer_1" xmlns="http://www.w3.org/2000/svg" xmlns:xlink="http://www.w3.org/1999/xlink" x="0px" y="0px"
	 width="72px" height="72px" viewBox="0 0 72 72" enable-background="new 0 0 72 72" xml:space="preserve">
<g>
	<g id="photo_2_">
		<path fill="#44C1C0" d="M47.949,18.62H24.052c-2.4,0-4.345,1.945-4.345,4.345v26.068c0,2.4,1.945,4.348,4.345,4.348h23.897
			c2.399,0,4.344-1.947,4.344-4.348V22.965C52.293,20.565,50.349,18.62,47.949,18.62z M50.121,49.033
			c0,1.198-0.976,2.175-2.172,2.175H24.052c-1.198,0-2.174-0.977-2.174-2.175V22.965c0-1.198,0.976-2.172,2.174-2.172h23.897
			c1.196,0,2.172,0.974,2.172,2.172V49.033z"/>
		<path fill="#44C1C0" stroke="#44C1C0" stroke-miterlimit="10" d="M46.863,22.965H25.139c-0.601,0-1.086,0.486-1.086,1.087v19.553
			c0,0.601,0.486,1.084,1.086,1.084h21.725c0.601,0,1.086-0.483,1.086-1.084V24.052C47.949,23.451,47.464,22.965,46.863,22.965z
			 M46.863,24.052v15.064l-3.531-3.834c-0.209-0.235-0.502-0.368-0.814-0.368s-0.609,0.133-0.814,0.368l-2.829,3.203l-8.576-9.721
			c-0.206-0.235-0.504-0.368-0.816-0.368c-0.31,0-0.608,0.133-0.813,0.368l-3.53,4.071v-8.784H46.863z M25.139,34.479l4.343-4.997
			l8.762,9.932l0.63,0.714l3,3.477H25.139V34.479z M43.321,43.604l-3.724-4.297L42.518,36l4.346,4.757v2.848H43.321z"/>
		<path fill="#44C1C0" stroke="#44C1C0" stroke-miterlimit="10" d="M40.344,32.741c1.801,0,3.261-1.458,3.261-3.259
			c0-1.8-1.46-3.259-3.261-3.259c-1.8,0-3.258,1.459-3.258,3.259C37.086,31.283,38.544,32.741,40.344,32.741z M40.344,27.31
			c1.198,0,2.174,0.975,2.174,2.173c0,1.199-0.976,2.173-2.174,2.173c-1.197,0-2.172-0.974-2.172-2.173
			C38.172,28.284,39.146,27.31,40.344,27.31z"/>
	</g>
</g>
</svg>
