<?xml version="1.0" encoding="utf-8"?>
<!-- Generator: Adobe Illustrator 15.0.0, SVG Export Plug-In . SVG Version: 6.00 Build 0)  -->
<!DOCTYPE svg PUBLIC "-//W3C//DTD SVG 1.1//EN" "http://www.w3.org/Graphics/SVG/1.1/DTD/svg11.dtd">
<svg version="1.1" id="Layer_1" xmlns="http://www.w3.org/2000/svg" xmlns:xlink="http://www.w3.org/1999/xlink" x="0px" y="0px"
	 width="72px" height="72px" viewBox="0 0 72 72" enable-background="new 0 0 72 72" xml:space="preserve">
<g>
	<g>
		<g>
			<path fill="#44C1C0" d="M51.301,19.801H20.711c-1.302,0-2.356,1.06-2.356,2.372v21.726c0,1.311,1.055,2.37,2.356,2.37h11.731
				c0,0-2.059,4.744-7.709,4.744v1.186h4.15h10.081h7.711v-1.186c-5.809,0-7.119-4.744-7.119-4.744h11.739
				c1.295,0,2.35-1.06,2.35-2.37V22.173C53.651,20.861,52.596,19.801,51.301,19.801z M51.128,42.421h-30.25V22.322h30.252
				L51.128,42.421L51.128,42.421z"/>
			<polygon fill="#44C1C0" points="29.753,33.384 33.122,33.381 32.731,37.054 34.771,37.052 35.703,28.277 33.664,28.28 
				33.304,31.652 29.938,31.654 30.294,28.282 28.242,28.282 27.31,37.056 29.362,37.056 			"/>
			<path fill="#44C1C0" d="M43.166,36.004c0.95-0.715,1.7-1.874,1.882-3.555c0.165-1.545-0.31-2.628-1.179-3.305
				c-0.803-0.639-1.887-0.936-3.604-0.936c-1.035,0-2.021,0.064-2.783,0.184l-0.916,8.617c0.5,0.066,1.246,0.131,2.307,0.128
				C40.643,37.14,42.135,36.773,43.166,36.004z M39.383,29.811c0.178-0.04,0.48-0.079,0.932-0.079c1.76,0,2.76,0.961,2.553,2.783
				c-0.223,2.096-1.537,3.085-3.387,3.076c-0.258,0-0.537,0-0.709-0.04L39.383,29.811z"/>
		</g>
	</g>
</g>
</svg>
