<?xml version="1.0" encoding="utf-8"?>
<!-- Generator: Adobe Illustrator 15.0.0, SVG Export Plug-In . SVG Version: 6.00 Build 0)  -->
<!DOCTYPE svg PUBLIC "-//W3C//DTD SVG 1.1//EN" "http://www.w3.org/Graphics/SVG/1.1/DTD/svg11.dtd">
<svg version="1.1" id="Layer_1" xmlns="http://www.w3.org/2000/svg" xmlns:xlink="http://www.w3.org/1999/xlink" x="0px" y="0px"
	 width="72px" height="72px" viewBox="0 0 72 72" enable-background="new 0 0 72 72" xml:space="preserve">
<g>
	<path fill="#44C1C0" d="M50.875,33.955c-0.255-0.212-0.591-0.3-0.917-0.24l-3.873,0.713v-2.435c0-0.617-0.5-1.116-1.117-1.116
		h-0.679c1.43-1.289,2.329-3.153,2.329-5.223c0-3.878-3.154-7.035-7.031-7.035c-2.48,0-4.663,1.293-5.916,3.236
		c-1.254-1.943-3.436-3.236-5.915-3.236c-3.878,0-7.033,3.157-7.033,7.035c0,2.069,0.9,3.934,2.329,5.223h-0.679
		c-0.616,0-1.117,0.499-1.117,1.116v13.362c0,0.617,0.501,1.117,1.117,1.117h8.719l-4.349,4.35c-0.438,0.438-0.438,1.146,0,1.582
		c0.436,0.438,1.143,0.438,1.579,0l5.349-5.348l5.349,5.348c0.218,0.217,0.504,0.328,0.789,0.328c0.287,0,0.572-0.111,0.791-0.328
		c0.437-0.436,0.437-1.145,0-1.582l-4.35-4.35h8.718c0.617,0,1.117-0.5,1.117-1.117V42.92l3.873,0.715
		c0.066,0.014,0.134,0.02,0.202,0.02c0.259,0,0.513-0.092,0.715-0.26c0.256-0.213,0.402-0.527,0.402-0.859v-7.721
		C51.277,34.481,51.131,34.167,50.875,33.955z M39.587,20.854c2.644,0,4.796,2.153,4.796,4.8c0,2.644-2.152,4.796-4.796,4.796
		c-2.646,0-4.799-2.152-4.799-4.796C34.788,23.008,36.94,20.854,39.587,20.854z M33.671,29.45c0.34,0.526,0.746,1.008,1.211,1.427
		H32.46C32.924,30.458,33.331,29.977,33.671,29.45z M22.958,25.654c0-2.646,2.153-4.8,4.798-4.8s4.797,2.153,4.797,4.8
		c0,2.644-2.152,4.796-4.797,4.796S22.958,28.298,22.958,25.654z M43.851,44.238H23.491V33.112h20.359V44.238z M49.042,41.193
		l-2.957-0.543v-3.949l2.957-0.546V41.193z"/>
</g>
</svg>
