<?xml version="1.0" encoding="utf-8"?>
<!-- Generator: Adobe Illustrator 15.0.0, SVG Export Plug-In . SVG Version: 6.00 Build 0)  -->
<!DOCTYPE svg PUBLIC "-//W3C//DTD SVG 1.1//EN" "http://www.w3.org/Graphics/SVG/1.1/DTD/svg11.dtd">
<svg version="1.1" id="Layer_1" xmlns="http://www.w3.org/2000/svg" xmlns:xlink="http://www.w3.org/1999/xlink" x="0px" y="0px"
	 width="72px" height="72px" viewBox="0 0 72 72" enable-background="new 0 0 72 72" xml:space="preserve">
<g>
	<g id="Cloud_x5F_Sun_4_">
		<g>
			<path fill="#44C1C0" d="M39.472,26.021c0.721,0,1.303-0.583,1.303-1.301v-2.604c0-0.719-0.582-1.303-1.303-1.303
				c-0.719,0-1.301,0.584-1.301,1.303v2.604C38.171,25.438,38.753,26.021,39.472,26.021z M44.53,40.484
				c1.423-1.344,2.317-3.24,2.317-5.351c0-4.073-3.303-7.376-7.376-7.376c-2.447,0-4.613,1.197-5.954,3.034
				c-0.862-0.271-1.771-0.431-2.724-0.431c-4.845,0-8.795,3.781-9.086,8.55c-2.077,1.088-3.498,3.26-3.498,5.768
				c0,3.596,2.912,6.51,6.508,6.51h17.357c3.116,0,5.643-2.525,5.643-5.641C47.718,43.314,46.413,41.398,44.53,40.484z
				 M39.472,30.36c2.633,0,4.774,2.142,4.774,4.773c0,0.867-0.246,1.678-0.654,2.376c-1.024-2.111-3.153-3.586-5.641-3.669
				c-0.573-0.726-1.26-1.355-2.023-1.879C36.802,30.983,38.062,30.36,39.472,30.36z M42.075,48.584H24.718
				c-2.152,0-3.904-1.752-3.904-3.906c0-1.455,0.805-2.781,2.103-3.461l1.301-0.68l0.09-1.467c0.21-3.425,3.061-6.106,6.487-6.106
				c2.001,0,3.864,0.908,5.112,2.49l0.75,0.951l1.211,0.039c2.116,0.07,3.775,1.781,3.775,3.896v1.734l1.603,0.67
				c1.134,0.473,1.869,1.572,1.869,2.803C45.114,47.223,43.75,48.584,42.075,48.584z M46.415,29.491c0.359,0,0.685-0.146,0.92-0.38
				l1.735-1.736c0.236-0.235,0.382-0.561,0.382-0.919c0-0.72-0.581-1.303-1.302-1.303c-0.359,0-0.685,0.146-0.92,0.382l-1.735,1.736
				c-0.235,0.234-0.381,0.559-0.381,0.919C45.114,28.908,45.696,29.491,46.415,29.491z M31.608,29.111
				c0.237,0.234,0.562,0.38,0.922,0.38c0.719,0,1.301-0.583,1.301-1.301c0-0.36-0.146-0.685-0.381-0.921l-1.735-1.736
				c-0.235-0.233-0.562-0.38-0.92-0.38c-0.719,0-1.303,0.583-1.303,1.303c0,0.358,0.146,0.684,0.382,0.919L31.608,29.111z
				 M52.49,33.831h-2.604c-0.719,0-1.303,0.583-1.303,1.302s0.584,1.301,1.303,1.301h2.604c0.719,0,1.301-0.582,1.301-1.301
				S53.209,33.831,52.49,33.831z"/>
		</g>
	</g>
</g>
</svg>
