<?xml version="1.0" encoding="utf-8"?>
<!-- Generator: Adobe Illustrator 15.0.0, SVG Export Plug-In . SVG Version: 6.00 Build 0)  -->
<!DOCTYPE svg PUBLIC "-//W3C//DTD SVG 1.1//EN" "http://www.w3.org/Graphics/SVG/1.1/DTD/svg11.dtd">
<svg version="1.1" id="Layer_1" xmlns="http://www.w3.org/2000/svg" xmlns:xlink="http://www.w3.org/1999/xlink" x="0px" y="0px"
	 width="72px" height="72px" viewBox="0 0 72 72" enable-background="new 0 0 72 72" xml:space="preserve">
<g>
	<path fill="#44C1C0" d="M42.463,47.227H25.914V22.35h16.549v5.36h1.975v-7.171c-0.002-1.455-1.182-2.636-2.633-2.636h-15.23
		c-1.459,0-2.635,1.181-2.635,2.636v30.924c0,1.453,1.176,2.633,2.635,2.633h15.23c1.451,0,2.633-1.18,2.633-2.633V39.85h-1.975
		V47.227L42.463,47.227z M40.066,19.553c0.371,0,0.672,0.302,0.672,0.675c0,0.371-0.301,0.674-0.672,0.674
		c-0.373,0-0.676-0.303-0.676-0.674C39.391,19.854,39.693,19.553,40.066,19.553z M30.656,19.807h7.062v0.773h-7.062V19.807z
		 M37.404,51.287h-6.434v-1.977h6.434V51.287z"/>
	<path fill="#44C1C0" d="M32.812,28.533v10.271h1.777l-1.777,4.219l5.184-4.219h10.065V28.533H32.812z M46.763,37.502h-8.769h-0.463
		l-0.357,0.293l-1.137,0.926l0.514-1.219h-1.963h-0.477v-7.666h12.651V37.502z"/>
</g>
</svg>
