<?xml version="1.0" encoding="utf-8"?>
<!-- Generator: Adobe Illustrator 15.0.0, SVG Export Plug-In . SVG Version: 6.00 Build 0)  -->
<!DOCTYPE svg PUBLIC "-//W3C//DTD SVG 1.1//EN" "http://www.w3.org/Graphics/SVG/1.1/DTD/svg11.dtd">
<svg version="1.1" id="Layer_1" xmlns="http://www.w3.org/2000/svg" xmlns:xlink="http://www.w3.org/1999/xlink" x="0px" y="0px"
	 width="72px" height="72px" viewBox="0 0 72 72" enable-background="new 0 0 72 72" xml:space="preserve">
<g>
	<path fill="#44C1C0" d="M38.756,43.988c0.201,0,0.398-0.014,0.594-0.022c-0.723,0.434-1.607,0.689-2.561,0.689
		c-2.469,0-4.469-1.723-4.469-3.844c0-0.74,0.246-1.427,0.67-2.015c-0.006,0.074-0.014,0.14-0.014,0.218
		C32.977,41.762,35.564,43.988,38.756,43.988z M52.979,38.051v1.894c0,3.337-2.682,6.035-5.992,6.035h-3.139
		c-1.596,2.169-4.303,3.599-7.371,3.599c-3.072,0-5.775-1.43-7.371-3.599h-3.139c-3.312,0.001-5.996-2.698-5.996-6.033v-1.895
		c0-0.679,0.137-1.318,0.342-1.927c-0.029,0.032-0.057,0.062-0.084,0.098l0.172-0.382l0.152-0.347l3.129-7.008
		c0.479-1.603,2.074-2.819,3.6-2.819h0.545c0-1.972,1.598-3.57,3.572-3.57c0.977,0,1.861,0.396,2.508,1.032h5.139
		c0.645-0.637,1.529-1.032,2.508-1.032c1.975,0,3.572,1.599,3.572,3.57h0.543c1.527,0,3.125,1.217,3.598,2.818l3.076,6.905
		l0.23,0.522l0.139,0.31c-0.02-0.019-0.039-0.038-0.059-0.057C52.848,36.76,52.979,37.388,52.979,38.051z M42.998,41.43
		c0-3.295-2.924-5.978-6.521-5.978s-6.523,2.683-6.523,5.978c0,3.3,2.926,5.979,6.523,5.979S42.998,44.729,42.998,41.43z"/>
</g>
</svg>
