<?xml version="1.0" encoding="utf-8"?>
<!-- Generator: Adobe Illustrator 15.0.0, SVG Export Plug-In . SVG Version: 6.00 Build 0)  -->
<!DOCTYPE svg PUBLIC "-//W3C//DTD SVG 1.1//EN" "http://www.w3.org/Graphics/SVG/1.1/DTD/svg11.dtd">
<svg version="1.1" id="Layer_1" xmlns="http://www.w3.org/2000/svg" xmlns:xlink="http://www.w3.org/1999/xlink" x="0px" y="0px"
	 width="72px" height="72px" viewBox="0 0 72 72" enable-background="new 0 0 72 72" xml:space="preserve">
<g>
	<g>
		<circle fill="#44C1C0" cx="36.088" cy="45.532" r="4.292"/>
		<path fill="#44C1C0" d="M46.346,35.191c-0.064-0.064-0.131-0.124-0.197-0.184l-0.193-0.182c-0.031-0.034-0.066-0.06-0.107-0.091
			c-5.549-5.042-14.043-4.842-19.34,0.455l-0.621,0.622l-0.86,0.86c-1.048,1.047-1.042,2.755,0.007,3.804
			c1.051,1.053,2.759,1.054,3.805,0.007l1.482-1.482c3.369-3.366,8.848-3.366,12.213-0.002l1.072,1.036
			c1.035,1.038,2.727,1.036,3.77-0.008c0.504-0.503,0.781-1.173,0.783-1.886c0.002-0.71-0.271-1.381-0.777-1.881L46.346,35.191z"/>
		<path fill="#44C1C0" d="M53.656,29.886l-0.891-0.891c-0.004-0.004-0.006-0.009-0.014-0.011l-0.703-0.708
			c-0.123-0.122-0.258-0.229-0.4-0.32c-9.045-7.941-22.804-7.697-31.561,0.727c-0.043,0.04-0.091,0.065-0.134,0.108l-1.609,1.611
			c-0.956,0.954-0.95,2.506,0.011,3.467c0.959,0.959,2.51,0.965,3.465,0.009l1.611-1.608c0.01-0.015,0.019-0.026,0.029-0.035
			c7.082-6.842,18.316-6.884,25.455-0.141l1.266,1.269c0.955,0.954,2.51,0.95,3.469-0.009C54.607,32.394,54.611,30.84,53.656,29.886
			z"/>
	</g>
</g>
</svg>
